<?xml version="1.0" encoding="utf-8"?>
<!-- Generator: Adobe Illustrator 24.0.0, SVG Export Plug-In . SVG Version: 6.00 Build 0)  -->
<svg version="1.1" id="Layer_1" xmlns="http://www.w3.org/2000/svg" xmlns:xlink="http://www.w3.org/1999/xlink" x="0px" y="0px"
	 viewBox="0 0 256 256" enable-background="new 0 0 256 256" xml:space="preserve">
<g>
	<rect x="82.526" y="161.362" fill="#F8AF23" width="22.383" height="57.329"/>
	<path fill="#CECECE" d="M230.208,93.189c-0.279,0.779-0.596,1.529-0.941,2.272l6.985,6.985l-13.735,13.735l-6.985-6.985
		c-0.743,0.346-1.5,0.662-2.272,0.941v9.882h-19.418v-9.882c-0.772-0.279-1.529-0.596-2.272-0.941l-6.985,6.985l-13.735-13.735
		l6.985-6.985c-0.346-0.743-0.662-1.493-0.941-2.272h-9.882V73.771h9.882c0.279-0.772,0.596-1.529,0.941-2.272l-6.985-6.985
		l13.735-13.735l6.985,6.992c0.743-0.346,1.5-0.669,2.272-0.949v-9.875h19.418v9.875c0.772,0.279,1.529,0.603,2.272,0.949
		l6.985-6.992l13.735,13.735l-6.985,6.985c0.346,0.743,0.662,1.5,0.941,2.272h9.875v19.418H230.208z"/>
	<g>
		<path fill="#E2E2E2" d="M240.083,93.189V73.771h-9.875c-0.279-0.772-0.596-1.529-0.941-2.272l6.985-6.985l-13.735-13.735
			l-6.985,6.992c-0.405-0.188-0.815-0.368-1.229-0.54l7.282,7.282l-6.985,6.985c0.345,0.743,0.662,1.5,0.941,2.272h9.875v19.418
			h-9.875c-0.279,0.779-0.596,1.529-0.941,2.272l6.985,6.985l-7.242,7.242c0.397-0.164,0.801-0.312,1.189-0.493l6.985,6.985
			l13.735-13.735l-6.985-6.985c0.345-0.743,0.662-1.493,0.941-2.272H240.083z"/>
		<path fill="#E2E2E2" d="M200.866,109.196c-0.743,0.346-1.5,0.662-2.272,0.941v9.882h14.667v-9.248l-5.41,5.41L200.866,109.196z"/>
		<path fill="#E2E2E2" d="M200.866,57.772l6.985-6.992l5.41,5.41v-9.24h-14.667v9.875C199.366,57.102,200.123,57.426,200.866,57.772
			z"/>
	</g>
	<circle fill="#F8AF23" cx="203.548" cy="83.484" r="13.503"/>
	<path fill="#F8AF23" d="M53.915,165.27l11.259-21.197v-14.502c0-4.792,3.884-8.676,8.676-8.676c4.792,0,8.676,3.884,8.676,8.676
		v89.12h-43.93V165.27H53.915z"/>
	
		<rect x="15.917" y="165.27" transform="matrix(-1 -4.491530e-11 4.491530e-11 -1 54.5127 383.9606)" fill="#63BCE7" width="22.679" height="53.421"/>
	<g>
		<rect x="15.917" y="165.27" fill="#6377E7" width="14.667" height="53.421"/>
	</g>
	<polygon fill="#CECECE" points="179.43,147.634 119.09,115.97 119.09,58 179.43,26.336 	"/>
	<rect x="179.43" y="26.336" fill="#63BCE7" width="24.118" height="121.298"/>
	<rect x="68.343" y="58" fill="#F46275" width="50.747" height="57.994"/>
	<rect x="41.526" y="72.481" fill="#63BCE7" width="26.817" height="29.009"/>
	<g>
		<rect x="41.526" y="72.481" fill="#6377E7" width="14.667" height="29.009"/>
	</g>
	<rect x="82.526" y="115.995" fill="#CECECE" width="31.662" height="78.329"/>
	<path fill="#F8AF23" d="M96.759,157.957c0,4.792,3.884,8.676,8.676,8.676h14.502c4.792,0,8.676-3.884,8.676-8.676l0,0
		c0-4.792-3.885-8.676-8.676-8.676h-14.502C100.644,149.281,96.759,153.165,96.759,157.957L96.759,157.957z"/>
	<path fill="#F8AF23" d="M96.759,175.309c0,4.792,3.884,8.676,8.676,8.676h14.502c4.792,0,8.676-3.885,8.676-8.676l0,0
		c0-4.792-3.885-8.676-8.676-8.676h-14.502C100.644,166.633,96.759,170.518,96.759,175.309L96.759,175.309z"/>
	<path fill="#F8AF23" d="M96.759,192.662c0,4.792,3.884,8.676,8.676,8.676h14.502c4.792,0,8.676-3.885,8.676-8.676l0,0
		c0-4.792-3.885-8.676-8.676-8.676h-14.502C100.644,183.986,96.759,187.87,96.759,192.662L96.759,192.662z"/>
	<path fill="#F8AF23" d="M96.759,210.015c0,4.792,3.884,8.676,8.676,8.676h14.502c4.792,0,8.676-3.884,8.676-8.676l0,0
		c0-4.792-3.885-8.676-8.676-8.676h-14.502C100.644,201.338,96.759,205.223,96.759,210.015L96.759,210.015z"/>
	<g>
		<path fill="#F87023" d="M105.436,166.633c-0.028,0-0.055,0.004-0.082,0.004s-0.055-0.004-0.082-0.004
			c0.028,0,0.055-0.004,0.082-0.004C105.381,166.629,105.408,166.633,105.436,166.633z"/>
		<path fill="#F87023" d="M105.353,201.342c-0.028,0-0.055-0.004-0.082-0.004c0.028,0,0.055-0.004,0.082-0.004
			c0.028,0,0.055,0.004,0.082,0.004C105.408,201.338,105.381,201.342,105.353,201.342z"/>
		<path fill="#F87023" d="M105.353,183.99c-0.028,0-0.055-0.004-0.082-0.004c0.028,0,0.055-0.004,0.082-0.004
			c0.028,0,0.055,0.004,0.082,0.004C105.408,183.986,105.381,183.99,105.353,183.99z"/>
		<path fill="#F8D323" d="M105.353,166.629c4.753-0.045,8.594-3.908,8.594-8.672c0-4.764-3.84-8.627-8.594-8.672
			c0.028,0,0.055-0.004,0.082-0.004h14.502c4.792,0,8.676,3.884,8.676,8.676c0,4.792-3.885,8.676-8.676,8.676h-14.502
			C105.408,166.633,105.381,166.629,105.353,166.629z"/>
		<path fill="#F8D323" d="M105.353,183.981c4.753-0.045,8.594-3.908,8.594-8.672c0-4.764-3.84-8.627-8.594-8.672
			c0.028,0,0.055-0.004,0.082-0.004h14.502c4.792,0,8.676,3.884,8.676,8.676c0,4.792-3.885,8.676-8.676,8.676h-14.502
			C105.408,183.986,105.381,183.982,105.353,183.981z"/>
		<path fill="#F8D323" d="M105.353,201.334c4.753-0.045,8.594-3.908,8.594-8.672c0-4.764-3.84-8.627-8.594-8.672
			c0.028,0,0.055-0.004,0.082-0.004h14.502c4.792,0,8.676,3.884,8.676,8.676c0,4.792-3.885,8.676-8.676,8.676h-14.502
			C105.408,201.338,105.381,201.334,105.353,201.334z"/>
		<path fill="#F8D323" d="M113.947,210.015c0-4.764-3.84-8.627-8.594-8.672c0.028,0,0.055-0.004,0.082-0.004h14.502
			c4.792,0,8.676,3.884,8.676,8.676c0,4.792-3.885,8.676-8.676,8.676h-14.502c-0.028,0-0.055-0.004-0.082-0.004
			C110.106,218.642,113.947,214.778,113.947,210.015z"/>
	</g>
	<g>
		<path fill="#3F3679" d="M27.323,228.164H9.32c-0.828,0-1.5,0.671-1.5,1.5s0.672,1.5,1.5,1.5h18.003c0.828,0,1.5-0.671,1.5-1.5
			S28.151,228.164,27.323,228.164z"/>
		<path fill="#3F3679" d="M246.68,228.164h-18.003c-0.828,0-1.5,0.671-1.5,1.5s0.672,1.5,1.5,1.5h18.003c0.828,0,1.5-0.671,1.5-1.5
			S247.508,228.164,246.68,228.164z"/>
		<path fill="#3F3679" d="M218.479,228.164H37.521c-0.828,0-1.5,0.671-1.5,1.5s0.672,1.5,1.5,1.5h180.959c0.828,0,1.5-0.671,1.5-1.5
			S219.308,228.164,218.479,228.164z"/>
		<path fill="#3F3679" d="M9.32,220.191h6.597h22.679h43.931h22.909h14.502H246.68c0.828,0,1.5-0.671,1.5-1.5s-0.672-1.5-1.5-1.5
			H127.144c1.833-1.841,2.969-4.378,2.969-7.176c0-3.672-1.961-6.887-4.885-8.676c2.924-1.79,4.885-5.004,4.885-8.676
			s-1.961-6.887-4.885-8.676c2.924-1.79,4.885-5.004,4.885-8.676s-1.961-6.887-4.885-8.676c2.924-1.79,4.885-5.004,4.885-8.676
			c0-5.611-4.564-10.176-10.176-10.176h-4.25v-30.286h3.079l59.966,31.468v-0.008c0.209,0.111,0.444,0.179,0.697,0.179h24.118
			c0.828,0,1.5-0.671,1.5-1.5V121.52h8.213c0.828,0,1.5-0.671,1.5-1.5v-8.852c0.146-0.06,0.293-0.12,0.439-0.183l6.257,6.256
			c0.586,0.586,1.535,0.586,2.121,0l13.734-13.735c0.586-0.585,0.586-1.535,0-2.121l-6.255-6.256
			c0.063-0.148,0.124-0.294,0.183-0.44h8.843c0.828,0,1.5-0.671,1.5-1.5V73.771c0-0.829-0.672-1.5-1.5-1.5h-8.844
			c-0.06-0.146-0.12-0.293-0.183-0.44l6.256-6.256c0.586-0.586,0.586-1.536,0-2.121l-13.734-13.735
			c-0.563-0.564-1.561-0.563-2.122,0l-6.255,6.261c-0.148-0.063-0.296-0.125-0.44-0.185v-8.847c0-0.829-0.672-1.5-1.5-1.5h-8.213
			V26.336c0-0.829-0.672-1.5-1.5-1.5H179.43c-0.253,0-0.488,0.069-0.697,0.179v-0.008L118.72,56.5H68.343
			c-0.828,0-1.5,0.671-1.5,1.5v12.98H41.525c-0.828,0-1.5,0.671-1.5,1.5v29.01c0,0.829,0.672,1.5,1.5,1.5h25.317v13.004
			c0,0.829,0.672,1.5,1.5,1.5h12.684v4.869c-1.842-1.834-4.379-2.969-7.177-2.969c-5.611,0-10.176,4.565-10.176,10.176v14.128
			l-10.66,20.071H38.596H15.917c-0.828,0-1.5,0.671-1.5,1.5v51.921H9.32c-0.828,0-1.5,0.671-1.5,1.5S8.492,220.191,9.32,220.191z
			 M205.048,71.585c5.911,0.742,10.503,5.789,10.503,11.899s-4.592,11.157-10.503,11.899V71.585z M211.761,48.448v8.375
			c0,0.631,0.396,1.195,0.989,1.411c0.665,0.241,1.368,0.534,2.149,0.897c0.572,0.265,1.247,0.147,1.694-0.3l5.925-5.93
			l11.612,11.613l-5.924,5.924c-0.445,0.446-0.565,1.122-0.3,1.693c0.335,0.718,0.634,1.441,0.891,2.149
			c0.215,0.594,0.778,0.99,1.41,0.99h8.375v16.418h-8.375c-0.634,0-1.198,0.398-1.412,0.994c-0.248,0.692-0.539,1.394-0.889,2.145
			c-0.266,0.571-0.146,1.248,0.3,1.693l5.924,5.924l-11.613,11.614l-5.925-5.924c-0.445-0.446-1.123-0.565-1.694-0.299
			c-0.718,0.335-1.44,0.634-2.148,0.89c-0.594,0.215-0.989,0.779-0.989,1.411v8.382h-6.713V98.411
			c7.571-0.755,13.503-7.161,13.503-14.927s-5.932-14.172-13.503-14.927V48.448H211.761z M180.93,27.836h21.118v118.298H180.93
			V27.836z M84.026,195.823h11.742c0.76,2.317,2.332,4.263,4.376,5.515c-2.924,1.79-4.885,5.004-4.885,8.676
			c0,2.798,1.135,5.335,2.969,7.176H84.026V195.823z M127.113,210.015c0,3.957-3.219,7.176-7.176,7.176h-14.502
			c-3.957,0-7.176-3.219-7.176-7.176s3.219-7.176,7.176-7.176h14.502C123.895,202.838,127.113,206.058,127.113,210.015z
			 M127.113,192.662c0,3.957-3.219,7.176-7.176,7.176h-14.502c-3.957,0-7.176-3.219-7.176-7.176s3.219-7.176,7.176-7.176h14.502
			C123.895,185.486,127.113,188.705,127.113,192.662z M127.113,175.31c0,3.957-3.219,7.176-7.176,7.176h-14.502
			c-3.957,0-7.176-3.219-7.176-7.176s3.219-7.176,7.176-7.176h14.502C123.895,168.133,127.113,171.353,127.113,175.31z
			 M127.113,157.957c0,3.957-3.219,7.176-7.176,7.176h-14.502c-3.957,0-7.176-3.219-7.176-7.176s3.219-7.176,7.176-7.176h14.502
			C123.895,150.781,127.113,154,127.113,157.957z M177.93,145.153l-57.34-30.09V58.907l57.34-30.09V145.153z M43.025,99.99V73.98
			h23.817v26.01H43.025z M69.843,101.49V72.48V59.5h47.747v54.994h-3.402H82.526H69.843V101.49z M112.688,117.495v30.286h-7.252
			c-5.611,0-10.176,4.565-10.176,10.176c0,3.672,1.961,6.887,4.885,8.676c-2.924,1.79-4.885,5.004-4.885,8.676
			s1.961,6.887,4.885,8.676c-2.924,1.79-4.885,5.004-4.885,8.676c0,0.054,0.007,0.107,0.008,0.161H84.026V129.57v-12.076H112.688z
			 M53.915,166.77c0.555,0,1.064-0.306,1.325-0.796l11.259-21.198c0.114-0.217,0.175-0.458,0.175-0.704V129.57
			c0-3.957,3.219-7.176,7.176-7.176s7.177,3.219,7.177,7.176v64.753v22.868H40.096V166.77H53.915z M17.417,166.77h8.339v30.382
			c0,0.829,0.672,1.5,1.5,1.5s1.5-0.671,1.5-1.5V166.77h8.34v50.421H17.417V166.77z"/>
	</g>
</g>
</svg>
